<?xml version="1.0" standalone="no"?>
<!DOCTYPE svg PUBLIC "-//W3C//DTD SVG 20010904//EN"
 "http://www.w3.org/TR/2001/REC-SVG-20010904/DTD/svg10.dtd">
<svg version="1.0" xmlns="http://www.w3.org/2000/svg"
 width="820.000000pt" height="820.000000pt" viewBox="0 0 820.000000 820.000000"
 preserveAspectRatio="xMidYMid meet">
<metadata>
Created by potrace 1.11, written by Peter Selinger 2001-2013
</metadata>
<g transform="translate(0.000000,820.000000) scale(0.100000,-0.100000)"
fill="#000000" stroke="none">
<path d="M3807 8024 c-2 -2 -35 -7 -73 -9 -70 -5 -120 -11 -164 -20 -14 -3
-43 -7 -65 -10 -22 -2 -50 -6 -61 -9 -12 -2 -37 -7 -55 -10 -121 -20 -417 -98
-504 -132 -22 -9 -47 -17 -55 -19 -18 -4 -142 -50 -185 -69 -16 -7 -61 -26
-100 -42 -103 -42 -374 -181 -495 -254 -160 -97 -404 -266 -506 -352 -255
-214 -393 -349 -595 -578 -129 -147 -350 -456 -438 -613 -67 -120 -90 -164
-138 -259 -93 -188 -199 -465 -244 -638 -6 -25 -14 -52 -17 -60 -8 -24 -15
-53 -38 -160 -2 -14 -7 -32 -9 -40 -3 -8 -7 -33 -10 -55 -3 -22 -10 -62 -15
-90 -41 -225 -49 -686 -16 -905 11 -72 20 -126 21 -130 2 -8 17 -105 17 -107
-1 -2 4 -17 9 -35 5 -18 12 -46 15 -63 31 -180 157 -539 275 -782 27 -56 49
-107 49 -113 0 -5 4 -10 9 -10 5 0 15 -15 22 -33 7 -17 35 -67 61 -110 26 -43
48 -81 48 -83 0 -14 190 -288 271 -392 138 -175 188 -231 369 -412 175 -174
179 -178 305 -280 44 -36 82 -68 85 -71 3 -3 32 -25 65 -50 33 -24 62 -47 65
-50 5 -6 283 -191 325 -216 178 -107 428 -232 608 -304 97 -39 254 -96 287
-104 8 -2 45 -13 83 -25 78 -24 188 -53 267 -69 51 -11 73 -15 118 -25 16 -3
79 -14 127 -21 161 -25 341 -38 520 -39 146 0 358 10 404 19 13 2 49 7 80 10
31 4 63 8 71 10 8 2 35 7 60 10 24 4 47 8 50 10 4 2 29 7 56 11 27 3 52 8 55
10 3 2 20 6 38 9 162 28 552 156 739 241 29 13 55 24 57 24 12 0 343 168 355
180 3 3 16 11 30 18 14 6 34 18 45 24 11 7 43 26 70 43 141 84 436 294 528
374 392 344 585 551 824 885 172 241 383 635 459 856 10 30 23 58 29 62 5 4 7
8 2 8 -4 0 0 17 8 37 43 103 139 474 150 583 4 37 16 122 21 150 31 174 20
659 -20 855 -2 11 -7 40 -11 65 -37 233 -145 577 -256 815 -18 39 -33 72 -34
75 -3 11 -118 229 -145 275 -16 28 -37 64 -46 80 -49 89 -291 427 -359 501 -5
6 -29 33 -52 60 -79 92 -94 109 -177 194 -100 102 -209 206 -295 280 -35 30
-69 60 -75 65 -42 39 -250 196 -346 261 -63 43 -118 82 -121 87 -3 5 -9 8 -13
7 -4 0 -46 23 -94 53 -192 119 -394 220 -642 322 -36 15 -69 28 -75 29 -5 2
-17 6 -25 9 -92 40 -485 153 -564 163 -22 3 -44 8 -49 11 -4 3 -23 7 -40 10
-18 2 -43 6 -57 9 -52 9 -167 25 -215 30 -27 3 -63 7 -80 10 -38 7 -572 14
-578 8z m553 -118 c30 -4 91 -11 135 -17 44 -6 95 -13 114 -15 19 -3 52 -9 75
-14 22 -5 57 -12 76 -15 63 -11 285 -67 304 -77 17 -9 16 -12 -15 -31 -19 -12
-36 -24 -39 -27 -3 -3 -21 -17 -40 -30 -19 -13 -37 -27 -40 -30 -3 -3 -36 -30
-75 -61 -202 -162 -369 -333 -592 -609 -7 -8 -37 -49 -67 -90 -31 -41 -59 -79
-63 -85 -19 -24 -103 -146 -103 -151 0 -2 -15 -26 -34 -53 -112 -159 -398
-673 -566 -1018 l-45 -91 -65 1 c-133 1 -230 -92 -230 -221 0 -61 15 -107 51
-153 33 -42 32 -48 -5 -114 -90 -156 -120 -206 -128 -211 -4 -3 -8 -17 -8 -31
0 -15 -3 -24 -6 -20 -4 3 -24 -22 -46 -56 -49 -76 -169 -237 -178 -237 -3 0
-6 19 -7 43 -3 139 -47 243 -142 338 -68 68 -178 131 -250 144 -19 3 -38 8
-42 11 -17 10 -109 17 -234 17 -132 -1 -184 -5 -243 -22 -18 -5 -36 -10 -40
-11 -20 -3 -58 -13 -67 -19 -5 -3 -12 -6 -15 -6 -23 -1 -125 -73 -163 -115
-56 -62 -70 -87 -89 -160 -35 -134 21 -257 137 -306 41 -17 131 -12 172 9 33
17 108 97 112 119 14 89 12 117 -13 176 -61 144 -16 216 134 215 85 -1 92 -3
141 -26 52 -26 97 -76 117 -133 15 -39 18 -79 18 -203 l-1 -155 -29 -7 c-15
-4 -47 -10 -70 -12 -22 -3 -61 -10 -86 -17 -25 -7 -52 -13 -60 -15 -85 -17
-258 -93 -375 -164 -49 -29 -70 -36 -115 -37 -50 -1 -138 -6 -295 -20 -33 -2
-98 -7 -145 -9 -47 -2 -132 -7 -190 -11 l-104 -6 49 40 c102 81 228 237 331
407 70 117 188 347 237 460 19 44 44 103 57 130 12 28 26 59 31 70 8 19 30 74
34 85 1 3 6 16 12 30 6 14 45 113 88 220 42 107 80 204 85 215 5 11 32 79 61
150 28 72 57 144 64 160 7 17 39 93 70 170 32 77 65 158 75 180 10 22 32 74
50 115 18 41 46 104 63 140 17 36 31 67 32 70 1 9 159 325 165 330 3 3 16 27
30 53 14 27 30 56 35 65 6 10 25 44 44 77 36 63 212 334 236 363 8 9 22 27 32
38 20 24 302 127 408 150 6 1 55 13 110 27 55 14 114 28 130 31 17 3 41 7 55
10 60 13 117 22 198 32 17 2 49 6 70 9 20 2 78 7 127 11 50 4 91 8 92 9 6 4
413 -3 463 -9z m1070 -261 c80 -31 213 -90 296 -130 153 -74 446 -240 452
-256 2 -5 8 -9 13 -9 6 0 22 -8 37 -19 47 -32 207 -145 217 -153 56 -44 181
-143 185 -148 3 -3 19 -16 35 -29 87 -66 396 -364 394 -380 0 -3 -28 -26 -62
-51 -71 -51 -251 -195 -282 -225 -11 -11 -52 -47 -89 -80 -38 -33 -83 -73
-101 -90 -100 -92 -272 -254 -351 -331 -356 -346 -589 -571 -648 -626 -38 -34
-94 -87 -125 -115 -51 -48 -76 -59 -118 -54 -8 1 -13 -10 -13 -27 0 -27 -42
-72 -129 -139 -29 -22 -33 -14 -29 67 3 85 4 84 -50 82 -13 -1 -62 -14 -110
-29 -48 -15 -89 -28 -92 -28 -11 -3 -159 -47 -215 -66 -56 -18 -60 -21 -60
-49 0 -21 5 -30 17 -30 25 0 74 -55 82 -91 3 -17 6 -62 6 -99 l0 -67 -112 -54
c-62 -29 -117 -54 -123 -55 -5 -2 -33 -12 -62 -23 -29 -11 -54 -17 -56 -13 -2
4 -3 280 -3 615 l1 607 -31 0 c-17 0 -66 -11 -110 -24 -43 -14 -126 -39 -184
-57 -58 -18 -110 -34 -117 -35 -6 -1 -28 -7 -47 -14 -30 -10 -36 -16 -36 -41
0 -23 6 -31 35 -44 68 -28 68 -28 69 -586 l1 -496 -50 -2 c-27 -1 -88 -4 -135
-7 -76 -5 -168 -7 -195 -5 -7 1 -10 123 -10 350 l0 349 -35 -3 c-31 -3 -93
-20 -248 -71 -63 -21 -65 -19 -33 39 16 28 39 71 51 94 18 35 26 41 48 39 37
-3 95 18 139 51 81 62 105 201 51 294 -23 40 -24 46 -11 66 8 12 38 70 67 130
28 59 55 114 60 121 4 7 38 72 76 145 37 73 82 156 99 185 17 29 31 55 31 57
0 6 163 286 195 335 115 180 171 262 247 367 48 67 94 128 101 135 7 7 23 26
35 42 66 86 249 284 341 370 24 23 53 50 65 61 65 62 221 183 366 283 66 46
60 47 260 -33z m-2970 -162 c-24 -37 -53 -84 -65 -103 -41 -65 -119 -205 -167
-299 -26 -51 -53 -99 -59 -107 -6 -7 -12 -19 -13 -26 -1 -7 -21 -50 -43 -95
-23 -45 -39 -84 -35 -87 3 -3 0 -6 -6 -6 -7 0 -12 -4 -12 -9 0 -5 -16 -45 -36
-88 -34 -73 -55 -121 -59 -133 -1 -3 -13 -31 -28 -64 -15 -32 -27 -61 -27 -63
0 -3 -6 -19 -14 -36 -8 -18 -29 -66 -46 -107 -17 -41 -35 -84 -40 -95 -5 -11
-56 -139 -114 -285 -58 -146 -110 -278 -117 -295 -7 -16 -13 -34 -15 -40 -6
-25 -57 -141 -66 -152 -6 -7 -8 -13 -5 -13 8 0 -39 -112 -117 -283 -14 -32
-26 -60 -26 -62 0 -24 -247 -497 -282 -540 -5 -5 -36 -48 -70 -94 -66 -89
-159 -188 -224 -236 -21 -17 -41 -32 -44 -35 -12 -14 -148 -78 -175 -84 -16
-3 -73 -8 -125 -11 -97 -6 -218 -14 -278 -19 l-33 -2 6 180 c3 100 8 197 10
216 3 19 7 55 11 80 3 25 7 61 10 80 2 19 7 46 9 60 3 14 8 42 11 64 3 21 19
90 35 155 17 64 32 125 34 135 3 11 12 42 22 70 9 28 18 53 18 56 10 45 72
209 125 330 16 36 34 80 42 98 7 17 16 32 20 32 5 0 8 7 8 15 0 8 11 34 23 57
13 24 46 84 72 133 26 50 52 92 56 93 5 2 9 8 9 14 0 10 166 267 179 278 3 3
19 23 34 46 15 22 36 50 47 62 11 12 20 25 20 31 0 5 3 11 8 13 4 2 27 28 52
58 25 30 49 60 55 66 195 220 276 300 465 468 34 30 140 116 188 153 13 10 31
25 42 33 10 8 27 22 37 30 68 54 339 229 463 298 106 60 265 140 269 136 2 -2
-16 -34 -39 -71z m4751 -1130 c41 -49 94 -115 119 -148 24 -33 46 -62 50 -65
13 -11 150 -219 150 -228 0 -6 4 -12 8 -14 28 -12 238 -421 307 -598 72 -184
176 -532 163 -546 -4 -4 -183 -60 -218 -68 -22 -6 -180 -57 -487 -158 -150
-49 -275 -89 -278 -89 -3 1 -29 -8 -57 -18 -62 -22 -135 -43 -163 -48 -11 -2
-31 -7 -45 -13 -31 -11 -215 -49 -258 -52 -29 -2 -34 -8 -58 -65 -15 -35 -25
-65 -23 -67 4 -4 132 -10 499 -21 212 -7 263 -13 348 -41 214 -72 434 -223
686 -470 l85 -83 -19 -88 c-21 -97 -67 -280 -77 -303 -3 -8 -7 -17 -8 -20 -1
-3 -6 -21 -12 -40 -48 -159 -220 -544 -298 -665 -18 -29 -31 -56 -28 -59 4 -3
2 -6 -4 -6 -6 0 -16 -13 -23 -30 -7 -16 -16 -30 -21 -30 -5 0 -9 -5 -9 -10 0
-17 -186 -287 -259 -376 -15 -17 -33 -40 -41 -50 -86 -106 -344 -382 -326
-348 5 10 -57 194 -94 279 -5 11 -41 110 -81 220 -60 170 -153 414 -192 505
-5 14 -11 30 -13 35 -1 6 -16 42 -34 80 -17 39 -35 79 -40 90 -4 11 -35 76
-68 145 -32 69 -62 132 -66 140 -3 8 -17 33 -29 55 -13 22 -37 65 -54 95 -61
111 -106 183 -124 201 -20 20 -17 33 52 204 7 17 13 32 13 35 5 20 41 107 49
118 5 6 6 12 2 12 -4 0 -2 7 5 15 7 8 9 15 5 15 -4 0 -3 6 2 13 6 6 54 127
108 267 247 649 233 619 324 706 29 28 69 46 106 48 14 1 15 114 1 119 -6 2
-123 3 -261 3 l-250 -1 -3 -52 c-3 -57 -4 -57 83 -69 28 -4 60 -14 73 -22 38
-25 32 -49 -72 -310 -31 -77 -56 -144 -56 -149 0 -6 -8 -17 -17 -25 -14 -11
-40 -14 -112 -12 -52 2 -97 7 -101 11 -18 19 -201 464 -195 473 17 27 76 44
171 49 7 1 11 23 10 59 l-1 57 -262 1 c-144 0 -265 2 -267 5 -3 3 43 50 101
105 59 54 195 185 302 290 396 387 528 514 655 629 49 44 98 89 110 100 56 54
251 215 356 293 41 32 77 60 78 65 2 4 5 7 7 7 1 0 36 -39 76 -87z m-1871
-1531 c0 -5 -11 -8 -25 -8 -35 2 -39 11 -5 14 17 1 30 -2 30 -6z m153 -240
c36 -86 77 -183 91 -214 14 -32 22 -58 18 -59 -4 0 -116 -2 -249 -3 -172 -2
-243 0 -244 8 0 6 -1 77 -2 159 -2 112 1 147 11 147 6 0 12 4 12 8 0 4 12 15
28 24 15 10 39 27 53 40 15 13 48 41 75 63 26 22 53 45 58 52 23 26 81 -62
149 -225z m-2392 44 c4 -75 3 -409 -1 -414 -3 -4 -18 -8 -35 -8 -16 -1 -91 -5
-166 -9 l-136 -6 2 45 c1 37 7 50 40 84 22 22 51 53 65 68 37 44 181 246 193
272 10 22 12 23 24 6 7 -10 13 -27 14 -38z m4944 -41 c15 -91 24 -175 30 -259
2 -37 6 -71 9 -73 11 -12 -16 -44 -32 -39 -9 3 -64 8 -122 11 -58 3 -134 8
-170 11 -98 7 -200 12 -350 19 -74 4 -169 9 -210 12 -41 3 -124 5 -184 5 -60
0 -105 3 -100 7 10 7 71 29 101 36 10 2 57 17 105 33 48 16 90 27 93 24 3 -3
5 -1 5 5 0 5 6 10 13 10 6 0 75 21 152 47 133 46 373 123 405 132 8 2 65 19
125 37 61 19 113 32 117 28 3 -3 9 -24 13 -46z m-3355 -263 l0 -37 -61 -1
c-55 0 -58 1 -37 13 13 7 38 20 56 28 17 7 32 19 32 24 0 6 2 11 5 11 3 0 5
-17 5 -38z m-2394 -126 c5 -38 -5 -42 -107 -44 -56 -1 -105 -5 -110 -8 -5 -3
-9 -3 -9 0 0 9 105 55 145 65 54 12 78 8 81 -13z m3363 -12 c4 -5 18 -34 30
-64 13 -30 31 -71 39 -90 9 -19 39 -90 68 -157 l52 -122 -94 94 c-129 129
-278 246 -403 316 l-44 24 119 5 c158 7 223 5 233 -6z m567 -3 c11 -1 -34
-131 -45 -131 -8 0 -60 127 -55 133 4 4 53 3 100 -2z m-1539 -305 c-2 -166 -6
-308 -9 -316 -21 -60 -50 -96 -83 -104 -22 -6 -41 -41 -26 -50 16 -10 646 -3
653 7 11 18 -3 37 -36 51 -37 15 -63 62 -72 127 -8 56 -11 548 -3 560 7 11
141 -57 246 -124 177 -114 368 -294 516 -487 31 -41 61 -79 65 -85 28 -35 112
-166 112 -175 0 -5 5 -10 10 -10 6 0 10 -4 10 -9 0 -5 19 -40 42 -77 100 -166
259 -500 368 -779 28 -71 55 -139 60 -150 4 -11 20 -54 35 -95 15 -41 38 -104
52 -140 14 -35 26 -69 28 -75 1 -5 6 -21 12 -35 5 -14 45 -120 88 -237 48
-129 83 -210 89 -206 19 10 -76 -77 -194 -178 -20 -17 -102 -82 -205 -162 -97
-75 -324 -224 -459 -302 -123 -71 -287 -155 -301 -155 -6 0 -16 -5 -23 -12 -6
-6 -26 -17 -44 -24 -37 -13 -172 -70 -203 -85 -41 -19 -309 -109 -324 -108
-16 0 21 19 49 24 16 2 15 37 -1 43 -5 2 -9 7 -9 12 0 5 -21 43 -46 86 -46 78
-174 324 -174 335 0 3 22 11 50 18 125 32 180 122 140 228 -21 56 -66 75 -186
79 -110 3 -129 10 -145 51 -13 35 8 70 54 88 49 20 90 12 116 -22 20 -25 47
-25 78 -1 26 21 -36 92 -89 104 -65 14 -166 -22 -210 -74 l-24 -29 -14 31
c-42 96 -124 276 -140 311 -10 22 -46 103 -80 180 -34 77 -73 165 -87 195 -14
30 -45 100 -70 155 -102 227 -289 607 -373 760 -27 50 -59 108 -71 130 -12 22
-46 80 -75 128 -30 49 -54 92 -54 97 0 4 -3 10 -7 12 -8 3 -84 113 -92 132 -2
5 -9 16 -17 25 -7 9 -30 39 -50 66 l-38 50 -1 228 c0 147 3 231 10 235 5 3 30
7 55 8 25 1 108 5 185 8 l140 7 -1 -268 c-1 -180 -5 -283 -13 -312 -13 -47
-68 -111 -95 -111 -10 0 -15 -8 -14 -24 l2 -24 328 0 328 0 0 22 c0 16 -11 27
-35 39 -70 34 -78 75 -80 422 l-1 280 76 0 c60 0 166 4 268 11 10 1 12 -59 9
-300z m2983 239 c83 -3 199 -10 320 -20 19 -2 49 -4 66 -4 l30 -1 -2 -87 c-2
-49 -3 -88 -4 -88 -3 0 -10 -90 -12 -152 -2 -35 -5 -63 -7 -63 -2 0 -38 33
-80 73 -84 80 -139 129 -190 167 -18 14 -38 30 -45 36 -25 23 -195 134 -205
134 -6 0 -11 4 -11 9 0 6 10 8 23 5 12 -3 65 -6 117 -9z m-4685 -87 c39 -26
82 -58 96 -71 l25 -24 -2 -174 c-1 -139 -5 -183 -19 -217 -17 -43 -65 -92 -90
-92 -7 0 -12 -10 -11 -24 l1 -24 230 0 c127 0 259 -1 295 -2 l65 -1 29 -47
c66 -106 187 -315 234 -403 91 -173 322 -640 322 -654 0 -1 25 -55 55 -120 30
-64 55 -118 55 -120 0 -2 20 -46 45 -99 25 -53 45 -99 45 -101 0 -2 16 -39 35
-82 20 -43 40 -87 45 -98 4 -11 20 -45 33 -75 14 -30 59 -129 100 -220 97
-212 174 -375 249 -525 113 -224 215 -402 237 -415 10 -6 12 -10 4 -11 -16 -2
-32 -6 -35 -9 -2 -1 -10 -3 -18 -5 -8 -2 -53 -12 -100 -24 -127 -30 -186 -41
-335 -65 -137 -22 -346 -39 -499 -39 -101 -1 -349 11 -369 18 -6 2 -41 6 -76
10 -36 3 -67 7 -70 9 -3 2 -28 7 -56 10 -27 4 -63 9 -80 13 -16 4 -34 7 -40 8
-42 4 -314 74 -366 94 -15 5 -29 7 -32 5 -3 -3 -16 10 -29 28 -24 32 -102 168
-103 178 0 3 -5 12 -10 20 -10 15 -192 378 -194 385 -1 3 -15 33 -31 67 -16
34 -28 64 -25 66 3 3 35 -11 72 -30 103 -54 109 -54 122 -17 6 18 10 33 9 34
-2 0 -39 18 -83 40 -44 21 -88 45 -98 53 -16 15 -16 16 0 35 10 10 17 22 16
26 -1 3 36 81 83 173 46 92 84 170 84 173 0 7 -71 38 -75 33 -1 -2 -44 -84
-94 -183 -51 -99 -96 -184 -101 -189 -6 -6 -13 1 -19 15 -5 13 -34 78 -66 143
-38 81 -52 121 -45 126 8 5 3 14 -13 27 -14 10 -43 55 -65 99 l-40 79 23 33
22 32 93 -65 92 -66 19 22 c10 12 19 27 18 33 0 12 -219 169 -242 174 -8 2
-26 -15 -41 -38 -14 -22 -28 -40 -31 -40 -3 0 -15 21 -27 48 -20 42 -70 136
-133 247 -90 161 -153 263 -254 414 -64 96 -120 182 -126 190 -5 9 -12 18 -15
21 -3 3 -34 43 -69 90 -151 199 -366 426 -531 560 -30 25 -63 53 -74 62 -39
35 -214 152 -296 199 -47 27 -90 53 -97 59 -7 5 -16 10 -21 10 -4 0 -39 16
-76 35 -38 19 -75 35 -82 35 -8 0 -14 5 -14 11 0 6 -7 9 -15 5 -8 -3 -15 -1
-15 4 0 6 10 10 23 11 12 0 42 2 67 4 25 2 90 6 145 9 91 6 179 12 304 22 25
2 92 6 148 9 56 3 123 7 150 10 26 2 89 7 138 11 50 3 92 7 95 8 12 3 6 -22
-13 -59 -77 -151 -51 -303 72 -425 184 -182 469 -173 702 22 38 32 70 55 70
51 1 -5 2 -141 3 -303 2 -297 4 -324 33 -415 41 -128 154 -231 323 -294 73
-27 147 -42 217 -45 24 0 43 -5 43 -9 0 -5 4 -6 9 -3 5 3 46 8 92 11 46 3 98
7 116 10 39 6 155 44 167 56 6 5 18 9 28 9 10 0 18 5 18 10 0 6 5 10 11 10 12
0 87 58 119 92 21 23 54 89 70 140 16 54 14 151 -5 209 -22 65 -92 140 -160
170 -72 31 -174 31 -238 0 -119 -58 -197 -196 -173 -306 2 -11 5 -23 5 -27 2
-15 40 -17 84 -4 88 26 156 -11 157 -87 0 -71 -51 -144 -108 -154 -90 -15
-180 0 -240 39 -27 19 -49 45 -68 85 l-29 58 -1 615 c0 338 1 618 2 621 2 3
36 5 76 5 70 -1 76 -3 143 -48z m-1446 19 c-2 -1 -13 -9 -24 -17 -19 -14 -19
-14 -6 3 7 9 18 17 24 17 6 0 8 -1 6 -3z m756 -137 c1 -121 0 -124 -29 -164
-72 -99 -170 -139 -256 -102 -86 36 -129 176 -92 301 24 78 17 76 231 90 47 3
86 7 88 9 2 2 16 1 31 -3 l27 -7 0 -124z m-2030 -75 c44 -15 126 -49 183 -76
57 -27 105 -49 107 -49 7 0 209 -122 254 -153 25 -17 69 -50 97 -72 28 -22 67
-53 87 -68 107 -84 307 -284 422 -422 28 -33 52 -62 55 -65 18 -17 165 -221
234 -323 78 -115 286 -458 286 -471 0 -3 13 -27 29 -53 39 -66 141 -263 141
-273 0 -5 -6 -15 -12 -22 -13 -14 -18 -21 -101 -139 -43 -62 -45 -68 -29 -81
50 -41 45 -43 111 48 42 58 68 84 79 82 16 -3 95 -151 186 -348 21 -47 120
-250 220 -453 99 -202 176 -367 170 -367 -10 0 -88 31 -179 70 -77 33 -331
160 -401 201 -47 27 -88 49 -90 49 -3 0 -10 4 -17 10 -7 5 -68 46 -137 91 -69
45 -126 86 -128 90 -2 5 -9 9 -15 9 -7 0 -24 10 -39 23 -14 12 -36 30 -47 39
-12 10 -25 18 -30 18 -5 0 -11 3 -13 8 -1 4 -39 37 -83 72 -174 141 -313 272
-463 436 -104 113 -115 126 -177 204 -33 41 -64 80 -70 86 -5 6 -17 22 -25 34
-8 12 -29 41 -46 64 -30 40 -156 231 -182 276 -8 12 -23 39 -34 59 -11 20 -24
41 -28 46 -10 12 -130 252 -158 315 -79 176 -179 467 -207 598 -2 9 -11 49
-20 87 -15 62 -22 101 -40 210 -14 80 -31 233 -27 243 3 11 13 9 137 -33z
m5785 -431 c0 -8 -19 -13 -24 -6 -3 5 1 9 9 9 8 0 15 -2 15 -3z m-1157 -2215
c94 1 126 -11 140 -52 19 -59 -37 -110 -120 -110 -54 0 -75 18 -102 92 -23 65
-26 85 -10 76 6 -4 47 -7 92 -6z"/>
<path d="M4853 5490 c-86 -19 -171 -114 -172 -191 -1 -13 -1 -35 -1 -49 0 -70
56 -157 124 -192 51 -27 137 -29 183 -5 43 23 87 67 109 108 21 40 26 139 10
185 -35 101 -150 166 -253 144z"/>
<path d="M5825 2012 c-28 -20 -84 -61 -124 -91 -41 -29 -69 -56 -64 -60 5 -3
31 -37 57 -74 70 -102 200 -281 207 -287 3 -3 11 -15 18 -28 14 -26 25 -22 98
32 23 17 73 53 112 81 39 27 71 52 71 55 -1 8 -37 50 -44 50 -5 0 -123 -85
-159 -116 -23 -19 -41 -13 -64 23 -10 15 -26 37 -35 47 -10 11 -18 25 -18 31
0 6 38 38 84 70 75 54 82 62 73 82 -5 12 -16 24 -23 27 -7 3 -50 -22 -95 -55
-80 -58 -99 -67 -99 -51 0 5 -18 32 -40 62 l-39 53 93 67 94 66 -16 27 c-9 15
-21 27 -27 27 -5 -1 -33 -18 -60 -38z"/>
<path d="M5445 1754 c-17 -9 -79 -42 -140 -74 -60 -31 -127 -67 -147 -79 l-38
-23 20 -28 20 -29 61 35 c34 19 64 34 68 34 4 0 21 -28 39 -62 58 -115 164
-313 172 -321 10 -11 70 19 70 34 0 11 -39 88 -50 99 -3 3 -37 68 -77 146 -70
138 -71 141 -52 157 10 9 25 17 33 17 7 0 19 7 26 15 7 8 18 15 26 15 21 0 25
16 11 49 -13 30 -13 30 -42 15z"/>
<path d="M3260 1470 c-96 -17 -168 -92 -204 -214 -14 -48 -12 -179 3 -184 6
-2 11 -9 11 -16 0 -21 63 -74 115 -97 91 -41 191 -28 255 33 88 84 128 242 87
340 -38 90 -165 156 -267 138z m137 -103 c71 -37 77 -152 15 -273 -24 -47 -46
-68 -91 -82 -57 -20 -136 10 -167 62 -20 34 -26 135 -10 171 5 11 10 22 10 25
4 20 49 82 70 96 54 35 106 35 173 1z"/>
<path d="M4385 1371 c-16 -4 -29 -11 -28 -17 1 -5 4 -29 7 -54 4 -25 9 -56 11
-70 3 -14 7 -38 9 -55 3 -16 8 -50 12 -75 4 -25 8 -52 9 -60 11 -83 19 -136
21 -142 1 -5 2 -17 3 -27 1 -15 7 -18 36 -15 40 3 58 12 51 23 -3 4 -8 32 -11
62 -4 29 -10 74 -15 99 -4 25 -8 52 -8 60 0 8 -3 29 -6 45 -9 47 -16 92 -22
133 -7 57 -12 81 -19 92 -7 11 -6 11 -50 1z"/>
<path d="M3789 1335 c-3 -43 -7 -127 -13 -280 -4 -88 -8 -173 -9 -190 -2 -29
0 -30 41 -32 40 -3 42 -1 43 25 3 85 7 168 8 174 0 4 22 6 49 5 l47 -2 55
-109 55 -109 38 -2 c43 -1 52 6 38 32 -35 64 -98 203 -92 203 4 0 22 13 41 30
58 52 69 160 22 214 -39 42 -87 54 -249 59 -67 2 -73 1 -74 -18z m169 -59 c81
-7 107 -39 89 -108 -12 -49 -44 -66 -117 -63 -30 1 -58 3 -62 4 -4 0 -5 25 -3
54 2 28 4 68 4 89 1 29 4 35 19 33 9 -2 41 -6 70 -9z"/>
</g>
</svg>
